PathFileType	4	(X/Y/Z)	D:\TRACE\spotREDO_2-26-24\spot_baseline_2-v60.trc
DataRate	CameraRate	NumFrames	NumMarkers	Units	OrigDataRate	OrigDataStartFrame	OrigNumFrames
100.00	100.00	      24	9	mm	100.00	1751	      7000
Frame#	Time	front left toe			Front right toe			aft left toe			aft right toe			Arm			FL body			FR body			AL Body			AR Body			
		X1	Y1	Z1	X2	Y2	Z2	X3	Y3	Z3	X4	Y4	Z4	X5	Y5	Z5	X6	Y6	Z6	X7	Y7	Z7	X8	Y8	Z8	X9	Y9	Z9	

1751	17.500	-239.11472	20.06244	-110.93315	284.05341	25.83994	-96.41814	-154.22066	19.43044	374.57166	322.29782	134.18730	360.92001	4.13108	807.63171	-304.05310	-79.04871	549.25476	-274.23880	76.26003	552.93640	-287.10318	-13.24051	560.14557	607.84058	134.82889	559.32721	597.48059	
1752	17.510	-239.10902	20.02869	-110.97854	284.01822	25.92163	-96.40907	-154.26965	19.42204	374.61365	326.44263	141.74191	361.90527	3.05503	807.49969	-305.01663	-79.87663	548.59412	-274.74075	75.93250	552.62982	-287.79236	-14.79538	559.99225	607.03290	133.00357	559.46863	596.39313	
1753	17.520	-239.12228	20.03106	-111.06606	284.06958	25.93136	-96.33344	-154.60074	19.61544	374.44086	330.33960	147.49809	361.79916	1.84117	807.25885	-306.05478	-80.33003	548.15735	-275.30203	75.02601	552.51740	-288.48102	-15.71647	559.83087	606.15369	131.85892	559.24146	595.87872	
1754	17.530	-239.05135	19.97080	-111.24818	284.09320	25.98496	-96.34394	-154.75417	19.61505	374.37881	332.92270	150.39516	362.00888	0.53123	806.80103	-306.81714	-81.14811	548.02759	-276.50977	74.43953	552.42236	-289.35947	-17.45709	559.64252	605.30365	130.65103	559.37720	595.18646	
1755	17.540	-239.12422	19.95604	-111.25976	284.04187	26.03163	-96.44429	-154.72285	19.38228	374.47290	334.57297	150.62755	363.17914	-0.66732	806.75330	-307.51239	-81.82231	547.87531	-276.96698	73.53712	552.45465	-290.03571	-18.37118	559.54626	604.52258	129.74826	559.32703	594.56775	
1756	17.550	-238.93199	20.08782	-111.46937	284.00522	26.09983	-96.57525	-154.81059	19.18155	374.52496	335.09341	149.11789	365.08398	-1.42322	806.79456	-308.16687	-83.15703	548.06274	-278.01456	72.76006	552.44397	-290.64539	-18.91430	559.50671	604.10608	128.74716	559.31274	594.04791	
1757	17.560	-238.95064	20.12921	-111.40794	283.90527	26.11580	-96.70058	-154.73587	19.07254	374.48465	335.98877	147.18854	367.56210	-1.74103	806.92285	-308.51489	-83.45701	547.93225	-278.20779	72.03849	552.54572	-291.21768	-19.76517	559.35419	603.46124	127.98168	559.06036	593.46735	
1758	17.570	-238.99298	20.13222	-111.35380	283.83792	26.14850	-96.71519	-154.76993	18.97880	374.47592	337.94189	146.84024	369.59140	-2.17414	806.98004	-308.99478	-84.35136	548.04993	-278.70825	71.23091	552.77411	-291.57913	-20.40614	559.26520	602.99225	127.54126	558.90625	592.89484	
1759	17.580	-239.00142	20.10610	-111.31618	283.89490	26.15040	-96.71828	-154.69757	18.99967	374.45380	340.53961	147.14607	371.56204	-2.96957	807.14697	-309.58807	-85.12069	548.20502	-279.30780	70.45830	552.80499	-292.29364	-21.18096	559.09833	602.39148	126.82859	558.72052	592.29022	
1760	17.590	-239.05011	20.05554	-111.34422	283.85745	26.12889	-96.74728	-154.73199	18.98842	374.47836	343.57849	148.13585	373.22574	-3.71782	807.20502	-309.85403	-85.48100	548.08148	-279.62231	69.97678	552.82593	-292.68237	-21.84217	558.97119	602.03278	126.16435	558.82239	591.83301	
1761	17.600	-239.27664	20.16384	-111.49045	283.85983	26.15235	-96.72118	-154.77806	18.96499	374.46014	346.09647	148.93507	374.98285	-4.39272	807.11157	-310.20267	-85.87809	548.08563	-279.92517	69.56378	552.82416	-292.94507	-22.55864	558.99402	601.54724	125.60583	558.87067	591.47302	
1762	17.610	-239.30055	20.05816	-111.41814	283.89288	26.16374	-96.71417	-154.72762	18.93403	374.44894	348.70099	149.26152	376.50244	-5.05516	807.05505	-310.68469	-86.46821	548.11206	-280.40240	69.02700	552.68372	-293.34146	-23.19666	559.11237	601.18262	125.24687	558.95807	591.20294	
1763	17.620	-239.30942	19.90110	-111.40931	283.76178	26.11451	-96.77709	-154.72148	18.90820	374.43692	349.66013	147.96146	377.98764	-5.50855	806.82690	-310.97464	-87.05642	547.95654	-280.78531	68.51273	552.61359	-293.62747	-23.56178	559.23901	600.95898	125.30959	559.21515	590.99982	
1764	17.630	-239.28090	19.82674	-111.51370	283.78674	26.12947	-96.76285	-154.80362	18.99020	374.40991	351.84558	144.51407	379.63959	-6.02459	806.76294	-311.27048	-87.39412	547.66754	-281.04697	68.19487	552.57172	-293.81754	-23.98299	559.46692	600.75165	125.44965	559.54279	590.82257	
1765	17.640	-239.20561	19.76389	-111.59583	283.82208	26.15597	-96.75050	-154.75983	19.06513	374.31952	354.02090	138.87080	380.91861	-6.29527	806.60876	-311.60123	-87.56194	547.55591	-281.10529	67.99728	552.59668	-293.97028	-24.32082	559.69464	600.67981	123.58781	559.94440	590.63428	
1766	17.650	-239.20245	19.74693	-111.69019	283.78891	26.15267	-96.77596	-154.84377	19.10856	374.28839	355.91306	130.86034	382.00629	-6.66482	806.67230	-311.90396	-87.69012	547.54248	-281.14941	67.96753	552.68829	-294.05042	-24.75016	559.91754	600.55206	122.16763	560.29193	590.37720	
1767	17.660	-239.21323	19.80024	-111.71869	283.83966	26.16344	-96.74876	-154.85629	19.06928	374.29721	357.25909	120.78916	382.83246	-6.96987	806.82922	-312.03476	-87.74523	547.60236	-281.19882	67.98457	552.76166	-294.07727	-25.08633	559.99603	600.41888	122.47069	560.23083	590.35095	
1768	17.670	-239.18674	19.87838	-111.79027	283.83417	26.16489	-96.77404	-154.88173	19.00805	374.33151	359.14578	109.89738	383.59460	-7.05445	807.10809	-311.90561	-87.95094	547.96857	-281.24741	67.25783	553.15100	-294.17514	-25.25766	559.91998	600.34735	123.37256	560.19757	590.81610	
1769	17.680	-239.25198	19.97864	-111.72242	283.74011	26.11365	-96.79121	-154.89189	18.78915	374.36191	360.19904	97.86120	384.68243	-7.27050	807.68616	-311.73102	-88.10442	548.46362	-281.29550	67.08915	553.36932	-294.19223	-25.35990	559.66901	600.31299	122.75475	559.76312	590.26447	
1770	17.690	-239.28000	20.10618	-111.63048	283.71857	26.11956	-96.85613	-154.88057	18.72719	374.36905	360.99393	86.79431	386.29712	-7.12632	808.11639	-311.44363	-88.28569	548.93042	-281.25781	66.85802	553.74884	-294.21130	-25.33534	559.42078	600.35315	122.61711	559.47736	590.25104	
1771	17.700	-239.29691	20.16236	-111.54861	283.74750	26.13269	-96.87604	-154.87302	18.71174	374.37140	363.15533	76.58865	388.65112	-7.24088	808.54364	-311.22440	-88.50278	549.22565	-281.22189	66.66490	554.11743	-294.18909	-25.27600	559.20996	600.39050	122.67867	559.20148	590.24774	
1772	17.710	-239.27902	20.16152	-111.55598	283.72534	26.12068	-96.88601	-154.79828	18.68111	374.40430	363.07404	65.67461	389.73495	-7.40284	808.72662	-311.09882	-88.59302	549.42810	-281.14124	66.91119	554.37964	-294.15216	-25.28263	559.03473	600.44934	122.75445	558.98071	590.36334	
1773	17.720	-239.24329	20.08073	-111.54674	283.68936	26.11187	-96.89240	-154.77362	18.69882	374.41470	364.47101	55.84081	390.69516	-7.45956	808.78552	-310.84103	-88.64778	549.42407	-280.88486	66.84167	554.41882	-294.08548	-25.23102	558.95331	600.56769	122.80983	558.93103	590.51019	
1774	17.730	-239.21750	20.04347	-111.49860	283.66678	26.07671	-96.91100	-154.80011	18.79097	374.45685	364.97870	46.20691	390.79465	-7.46915	808.74652	-310.72644	-88.52222	549.36676	-280.70325	66.85069	554.39844	-293.96469	-25.07945	558.97375	600.74689	122.83411	559.03149	590.58954	
